<?xml version="1.0" standalone="no"?>
<svg xmlns:xlink="http://www.w3.org/1999/xlink" id="wave" style="transform:rotate(180deg); transition: 0.3s" viewBox="0 0 1440 100" version="1.1" xmlns="http://www.w3.org/2000/svg"><defs><linearGradient id="sw-gradient-0" x1="0" x2="0" y1="1" y2="0"><stop stop-color="rgba(255, 249, 234, 1)" offset="0%"/><stop stop-color="rgba(255, 249, 234, 1)" offset="100%"/></linearGradient></defs><path style="transform:translate(0, 0px); opacity:1" fill="url(#sw-gradient-0)" d="M0,10L60,16.7C120,23,240,37,360,46.7C480,57,600,63,720,60C840,57,960,43,1080,41.7C1200,40,1320,50,1440,60C1560,70,1680,80,1800,75C1920,70,2040,50,2160,41.7C2280,33,2400,37,2520,45C2640,53,2760,67,2880,61.7C3000,57,3120,33,3240,23.3C3360,13,3480,17,3600,23.3C3720,30,3840,40,3960,46.7C4080,53,4200,57,4320,61.7C4440,67,4560,73,4680,76.7C4800,80,4920,80,5040,73.3C5160,67,5280,53,5400,46.7C5520,40,5640,40,5760,35C5880,30,6000,20,6120,18.3C6240,17,6360,23,6480,35C6600,47,6720,63,6840,65C6960,67,7080,53,7200,41.7C7320,30,7440,20,7560,18.3C7680,17,7800,23,7920,23.3C8040,23,8160,17,8280,25C8400,33,8520,57,8580,68.3L8640,80L8640,100L8580,100C8520,100,8400,100,8280,100C8160,100,8040,100,7920,100C7800,100,7680,100,7560,100C7440,100,7320,100,7200,100C7080,100,6960,100,6840,100C6720,100,6600,100,6480,100C6360,100,6240,100,6120,100C6000,100,5880,100,5760,100C5640,100,5520,100,5400,100C5280,100,5160,100,5040,100C4920,100,4800,100,4680,100C4560,100,4440,100,4320,100C4200,100,4080,100,3960,100C3840,100,3720,100,3600,100C3480,100,3360,100,3240,100C3120,100,3000,100,2880,100C2760,100,2640,100,2520,100C2400,100,2280,100,2160,100C2040,100,1920,100,1800,100C1680,100,1560,100,1440,100C1320,100,1200,100,1080,100C960,100,840,100,720,100C600,100,480,100,360,100C240,100,120,100,60,100L0,100Z"/></svg>